HIERARCHY
ROOT Hips
{
	OFFSET 59.083698 -0.517322 95.602203
	CHANNELS 6 Xposition Yposition Zposition Xrotation Yrotation Zrotation
	JOINT spine
	{
		OFFSET 0.000000 -0.458068 7.965683
		CHANNELS 3 Xrotation Yrotation Zrotation
		JOINT spine1
		{
			OFFSET 0.000000 -0.000002 10.243103
			CHANNELS 3 Xrotation Yrotation Zrotation
			JOINT spine2
			{
				OFFSET 0.000000 -0.000002 9.814751
				CHANNELS 3 Xrotation Yrotation Zrotation
				JOINT Neck
				{
					OFFSET 0.000000 -1.201384 25.198601
					CHANNELS 3 Xrotation Yrotation Zrotation
					JOINT Head
					{
						OFFSET 0.000000 -0.000001 7.613144
						CHANNELS 3 Xrotation Yrotation Zrotation
						End Site
						{
							OFFSET 0.000000 6.077317 18.428101
						}
					}
				}
				JOINT RightShoulder
				{
					OFFSET -4.132702 0.575449 10.599205
					CHANNELS 3 Xrotation Yrotation Zrotation
					JOINT RightArm
					{
						OFFSET 0.000000 -0.000002 13.901794
						CHANNELS 3 Xrotation Yrotation Zrotation
						JOINT RightArmRoll
						{
							OFFSET 0.000000 -0.000001 7.017883
							CHANNELS 3 Xrotation Yrotation Zrotation
							JOINT RightForeArm
							{
								OFFSET 0.000000 -0.000003 20.440598
								CHANNELS 3 Xrotation Yrotation Zrotation
								JOINT RightForeArmRoll
								{
									OFFSET 0.000000 -0.000001 7.875153
									CHANNELS 3 Xrotation Yrotation Zrotation
									JOINT RightHand
									{
										OFFSET 0.000000 -0.000003 15.803696
										CHANNELS 3 Xrotation Yrotation Zrotation
										End Site
										{
											OFFSET 0.000000 -0.000000 0.100006
										}
									}
								}
							}
						}
					}
				}
				JOINT LeftShoulder
				{
					OFFSET 4.132702 0.575449 10.599205
					CHANNELS 3 Xrotation Yrotation Zrotation
					JOINT LeftArm
					{
						OFFSET 0.000000 -0.000002 13.901794
						CHANNELS 3 Xrotation Yrotation Zrotation
						JOINT LeftArmRoll
						{
							OFFSET 0.000000 -0.000001 7.017883
							CHANNELS 3 Xrotation Yrotation Zrotation
							JOINT LeftForeArm
							{
								OFFSET 0.000000 -0.000003 20.440598
								CHANNELS 3 Xrotation Yrotation Zrotation
								JOINT LeftForeArmRoll
								{
									OFFSET 0.000000 -0.000001 7.875153
									CHANNELS 3 Xrotation Yrotation Zrotation
									JOINT LeftHand
									{
										OFFSET 0.000000 -0.000003 15.803696
										CHANNELS 3 Xrotation Yrotation Zrotation
										End Site
										{
											OFFSET 0.000000 -0.000000 0.100006
										}
									}
								}
							}
						}
					}
				}
			}
		}
	}
	JOINT RightUpLeg
	{
		OFFSET -7.060482 1.086100 -1.294701
		CHANNELS 3 Xrotation Yrotation Zrotation
		JOINT RightUpLegRoll
		{
			OFFSET 0.000000 -0.000003 18.530800
			CHANNELS 3 Xrotation Yrotation Zrotation
			JOINT RightLeg
			{
				OFFSET 0.000000 0.000004 -22.947601
				CHANNELS 3 Xrotation Yrotation Zrotation
				JOINT RightLegRoll
				{
					OFFSET 0.000000 -0.000004 23.022598
					CHANNELS 3 Xrotation Yrotation Zrotation
					JOINT RightFoot
					{
						OFFSET 0.000000 -0.000003 19.162506
						CHANNELS 3 Xrotation Yrotation Zrotation
						JOINT RightToeBase
						{
							OFFSET 0.000000 -0.000003 16.018799
							CHANNELS 3 Xrotation Yrotation Zrotation
							End Site
							{
								OFFSET 0.006790 0.894205 7.757812
							}
						}
					}
				}
			}
		}
	}
	JOINT LeftUpLeg
	{
		OFFSET 7.060482 1.086100 -1.294701
		CHANNELS 3 Xrotation Yrotation Zrotation
		JOINT LeftUpLegRoll
		{
			OFFSET 0.000000 -0.000003 18.530899
			CHANNELS 3 Xrotation Yrotation Zrotation
			JOINT LeftLeg
			{
				OFFSET 0.000000 -0.000004 22.947502
				CHANNELS 3 Xrotation Yrotation Zrotation
				JOINT LeftLegRoll
				{
					OFFSET 0.000000 -0.000004 23.235504
					CHANNELS 3 Xrotation Yrotation Zrotation
					JOINT LeftFoot
					{
						OFFSET 0.000000 -0.000003 18.949600
						CHANNELS 3 Xrotation Yrotation Zrotation
						JOINT LeftToeBase
						{
							OFFSET 0.000000 -0.000003 16.018799
							CHANNELS 3 Xrotation Yrotation Zrotation
							End Site
							{
								OFFSET -0.030426 0.894205 7.757812
							}
						}
					}
				}
			}
		}
	}
}
MOTION
Frames: 6
Frame Time: 0.041667
50.392803 -1.143615 96.518394 -3.141251 0.408143 4.144709 -0.387294 0.046401 -0.448534 3.228624 0.092407 -0.897560 4.873617 0.081813 -0.898511 3.957561 7.962064 -1.123766 18.412780 -3.529312 -1.217719 -13.315064 -65.937116 -15.976717 117.329072 -73.460747 66.025581 0.000000 -0.000000 0.000001 88.424599 -0.423833 -6.875523 -0.000012 0.000012 -3.002689 -4.999926 -8.000077 -0.000002 -4.910431 60.215351 5.918263 -45.096987 111.928263 82.604731 -0.000008 -0.000018 -0.000003 82.263577 6.512303 1.636013 -0.000009 -0.000021 2.999990 -4.999806 7.999392 -0.000044 -3.153736 -178.644049 0.439934 -179.999991 0.000005 -1.203994 169.791317 0.606245 -0.672824 0.000002 0.000004 0.025695 67.611196 7.004691 1.954418 25.456890 -7.354575 -0.000007 0.508860 170.222384 -4.897787 -0.000020 -0.000003 -1.144150 -9.074600 2.602855 0.433245 -0.000003 -0.000001 -0.176703 70.705756 -6.923715 -1.916209 25.456957 7.355615 -0.000001 
50.369404 -1.169885 96.514999 -3.140642 0.408016 4.134657 -0.388153 0.046043 -0.449688 3.226905 0.092721 -0.900437 4.871895 0.082082 -0.901399 3.905567 7.905803 -1.090733 18.412450 -3.429131 -1.207435 -13.324593 -65.921304 -15.987052 117.356857 -73.485800 66.058127 0.000000 0.000000 -0.000000 88.430452 -0.406028 -6.893363 -0.000009 0.000012 -3.002689 -4.999927 -8.000077 -0.000001 -4.913666 60.190796 5.919822 -45.064693 111.889400 82.645227 -0.000008 -0.000018 -0.000002 82.317617 6.492467 1.660982 -0.000008 -0.000021 2.999990 -4.999804 7.999389 -0.000042 -3.156415 -178.660031 0.433814 -179.999991 0.000005 -1.203993 169.784228 0.603287 -0.673279 0.000002 0.000004 0.025721 67.609092 7.004686 1.954349 25.456890 -7.354576 -0.000008 0.509634 170.209380 -4.908503 -0.000020 -0.000005 -1.144149 -9.085434 2.604683 0.433416 -0.000004 -0.000001 -0.176709 70.698701 -6.923685 -1.916244 25.456953 7.355612 0.000000 
50.361599 -1.176917 96.509689 -3.139819 0.408367 4.124280 -0.389081 0.045665 -0.450824 3.225055 0.093060 -0.903320 4.870046 0.082376 -0.904294 3.852855 7.850609 -1.059413 18.413637 -3.331295 -1.198269 -13.334658 -65.906572 -15.998024 117.380667 -73.509528 66.084177 -0.000002 0.000003 -0.000001 88.436893 -0.387880 -6.911696 -0.000011 0.000011 -3.002690 -4.999927 -8.000073 -0.000002 -4.917197 60.165012 5.921606 -45.029170 111.850761 82.684132 -0.000008 -0.000017 -0.000002 82.372826 6.472271 1.686488 -0.000009 -0.000021 2.999989 -4.999806 7.999387 -0.000043 -3.159073 -178.677011 0.427787 -179.999991 0.000005 -1.203993 169.777835 0.599336 -0.674919 0.000002 0.000004 0.025751 67.606886 7.004672 1.954387 25.456890 -7.354576 -0.000008 0.510306 170.195378 -4.919780 -0.000020 -0.000003 -1.144149 -9.096000 2.606768 0.433569 -0.000003 -0.000001 -0.176723 70.691365 -6.923713 -1.916206 25.456953 7.355616 0.000000 
50.339806 -1.208667 96.503601 -3.138840 0.409054 4.113681 -0.390062 0.045272 -0.451949 3.223105 0.093417 -0.906205 4.868097 0.082687 -0.907191 3.799641 7.796150 -1.029325 18.415804 -3.235117 -1.189899 -13.345042 -65.892508 -16.009364 117.401635 -73.532348 66.105508 -0.000001 -0.000000 0.000001 88.443655 -0.369534 -6.930219 -0.000011 0.000011 -3.002686 -4.999926 -8.000076 -0.000001 -4.920934 60.138327 5.923554 -44.990787 111.812485 82.721200 -0.000008 -0.000017 -0.000003 82.428833 6.451849 1.712451 -0.000009 -0.000021 2.999990 -4.999806 7.999389 -0.000045 -3.161706 -178.693977 0.421787 -179.999991 0.000005 -1.203993 169.772043 0.596368 -0.675392 0.000002 0.000004 0.025785 67.604577 7.004688 1.954437 25.456890 -7.354577 -0.000008 0.510900 170.181376 -4.931445 -0.000020 -0.000005 -1.144150 -9.106368 2.609043 0.433707 -0.000003 -0.000001 -0.176734 70.683907 -6.923709 -1.916069 25.456955 7.355614 -0.000000 
50.315403 -1.209156 96.501190 -3.137771 0.409934 4.102942 -0.391065 0.044871 -0.453066 3.221095 0.093784 -0.909093 4.866097 0.083009 -0.910090 3.746135 7.742104 -0.999994 18.418643 -3.139896 -1.181981 -13.355603 -65.878841 -16.020934 117.421211 -73.554587 66.124393 -0.000002 -0.000000 0.000001 88.450663 -0.351035 -6.949046 -0.000010 0.000009 -3.002691 -4.999923 -8.000078 -0.000002 -4.924788 60.111136 5.925582 -44.953262 111.773245 82.760098 -0.000009 -0.000017 -0.000001 82.485387 6.431246 1.738793 -0.000008 -0.000020 2.999990 -4.999803 7.999389 -0.000041 -3.164333 -178.711968 0.415859 -179.999991 0.000005 -1.203993 169.766551 0.592418 -0.676046 0.000002 0.000003 0.025820 67.602364 7.004674 1.954375 25.456890 -7.354576 -0.000008 0.511458 170.166390 -4.943351 -0.000020 -0.000004 -1.144149 -9.116637 2.611418 0.433839 -0.000004 -0.000000 -0.176751 70.676345 -6.923701 -1.916038 25.456953 7.355617 -0.000003 
50.285702 -1.233327 96.493599 -3.136679 0.410866 4.092164 -0.392075 0.044468 -0.454180 3.219075 0.094154 -0.911981 4.864076 0.083334 -0.912989 3.692568 7.688130 -0.970944 18.421645 -3.044936 -1.174191 -13.366252 -65.865365 -16.032614 117.440445 -73.576656 66.142773 0.000000 -0.000002 0.000000 88.457725 -0.332515 -6.967876 -0.000010 0.000007 -3.002689 -4.999921 -8.000080 0.000001 -4.928648 60.083740 5.927613 -44.915652 111.733999 82.799002 -0.000007 -0.000019 -0.000003 82.542064 6.410704 1.765153 -0.000007 -0.000021 2.999990 -4.999806 7.999390 -0.000042 -3.166951 -178.728934 0.409880 -179.999991 0.000005 -1.203994 169.761060 0.587488 -0.676878 0.000002 0.000004 0.025857 67.600056 7.004690 1.954325 25.456892 -7.354576 -0.000008 0.512005 170.152389 -4.955307 -0.000020 -0.000003 -1.144149 -9.126864 2.613812 0.433966 -0.000004 -0.000001 -0.176767 70.668662 -6.923694 -1.916115 25.456955 7.355614 -0.000002 
